<?xml version="1.0" standalone="no"?>
<!DOCTYPE svg PUBLIC "-//W3C//DTD SVG 20010904//EN"
 "http://www.w3.org/TR/2001/REC-SVG-20010904/DTD/svg10.dtd">
<svg version="1.0" xmlns="http://www.w3.org/2000/svg"
 width="1013.000000pt" height="1280.000000pt" viewBox="0 0 1013.000000 1280.000000"
 preserveAspectRatio="xMidYMid meet">
<metadata>
Created by potrace 1.15, written by Peter Selinger 2001-2017
</metadata>
<g transform="translate(0.000000,1280.000000) scale(0.100000,-0.100000)"
fill="#6c757d" stroke="none">
<path d="M3650 12759 c-252 -56 -243 -54 -386 -85 l-131 -27 -72 -144 c-39
-79 -71 -146 -71 -149 0 -3 5 -2 12 2 6 4 8 3 5 -3 -3 -5 3 -72 14 -149 11
-76 24 -166 29 -199 5 -33 27 -190 50 -350 23 -159 45 -317 50 -350 5 -33 27
-190 50 -350 23 -159 43 -306 43 -325 0 -35 -54 -362 -60 -357 -8 8 -293 1765
-289 1780 4 15 0 18 -17 13 -12 -3 -53 -10 -92 -16 -191 -30 -743 -121 -762
-125 -26 -6 -188 -259 -186 -290 1 -11 13 -85 26 -165 l25 -145 -45 -260
c-101 -595 -112 -658 -116 -662 -4 -3 -111 -23 -291 -54 -32 -5 -60 -8 -61 -7
-2 2 -10 41 -19 88 -8 47 -34 186 -56 310 -23 124 -45 250 -50 280 -5 30 -27
156 -50 280 -60 329 -60 333 -54 353 5 15 2 18 -13 13 -10 -3 -108 -21 -218
-40 -500 -88 -660 -118 -666 -124 -12 -14 -169 -280 -169 -287 0 -3 3 -4 8 -2
4 3 7 -5 8 -16 0 -12 17 -112 37 -222 39 -217 48 -269 107 -600 65 -366 138
-777 181 -1015 22 -124 44 -247 48 -275 8 -48 82 -467 101 -570 5 -27 16 -88
25 -135 8 -47 15 -92 15 -101 0 -11 -40 -29 -143 -62 -300 -100 -467 -215
-467 -323 0 -32 52 -124 70 -124 5 0 10 -5 10 -10 0 -7 -6 -7 -20 0 -11 6 -20
8 -20 6 0 -6 46 -197 129 -538 28 -115 74 -300 101 -413 28 -113 73 -297 100
-410 28 -113 73 -298 101 -412 27 -115 70 -290 95 -390 24 -101 64 -265 88
-365 25 -101 68 -276 95 -390 28 -115 74 -300 101 -413 28 -113 73 -297 100
-410 28 -113 73 -298 101 -412 27 -115 68 -280 89 -368 21 -88 62 -253 89
-367 28 -115 74 -300 101 -413 28 -113 73 -297 100 -410 28 -113 73 -298 101
-412 27 -115 70 -290 95 -390 24 -101 64 -265 88 -365 95 -389 148 -608 182
-743 18 -76 34 -140 34 -141 0 -1 57 22 128 52 281 120 612 230 992 330 885
232 1921 316 2880 234 727 -63 1491 -232 2184 -484 54 -20 102 -36 106 -36 8
0 51 131 145 445 56 188 102 352 260 930 208 764 606 2442 895 3775 27 124 76
351 110 505 65 298 113 522 155 725 14 69 40 188 56 265 17 77 66 313 109 525
43 212 89 430 102 485 32 144 30 182 -9 232 -80 100 -331 214 -643 293 -47 12
-90 23 -97 25 -8 3 -6 24 7 77 10 40 30 122 44 182 14 61 32 113 39 118 8 6 5
10 -11 14 -13 4 -21 12 -19 18 2 6 16 49 30 96 63 207 183 598 227 745 27 88
89 294 139 458 228 745 275 901 313 1027 22 74 45 141 51 148 5 7 7 15 4 18
-6 7 -5 6 -731 229 -65 20 -124 35 -130 33 -24 -6 -286 -173 -277 -176 7 -2 7
-9 1 -20 -5 -9 -44 -129 -86 -267 -69 -227 -100 -331 -183 -600 -16 -49 -52
-170 -82 -267 -29 -97 -55 -175 -57 -173 -2 2 1 36 7 77 38 263 64 701 65
1116 0 193 4 352 8 352 21 0 5 18 -19 22 -16 3 -129 33 -253 68 -124 34 -254
70 -290 80 -331 89 -303 84 -334 66 -28 -16 -28 -16 -23 6 3 13 18 113 32 223
15 110 32 206 37 213 7 8 7 12 -2 12 -7 0 -58 7 -114 15 -55 8 -234 32 -396
55 -162 22 -314 43 -337 46 -42 6 -43 5 -168 -102 -69 -60 -121 -110 -116
-112 7 -2 7 -10 1 -20 -5 -9 -23 -118 -39 -242 -55 -414 -122 -895 -126 -915
-2 -11 -18 -28 -36 -37 l-31 -18 6 28 c3 15 15 151 27 302 15 192 26 280 36
291 16 19 24 18 -302 45 -110 10 -202 18 -204 20 -8 6 51 1130 60 1147 6 11 9
20 7 21 -2 2 -205 13 -453 25 l-450 22 -117 -118 c-105 -106 -115 -119 -95
-125 16 -4 18 -6 5 -7 -14 -1 -18 -10 -19 -38 0 -21 -8 -175 -17 -343 l-17
-305 -444 -3 c-390 -2 -447 -4 -462 -18 -21 -19 -17 -36 -59 256 -16 113 -45
315 -65 450 -20 135 -34 253 -31 263 6 23 3 22 -204 -24z m3940 -2839 c-6
-107 -15 -238 -21 -290 -14 -140 -40 -344 -44 -348 -1 -2 -11 41 -20 95 -9 54
-23 130 -31 168 -18 91 -18 117 6 282 11 76 33 239 50 363 33 248 45 330 57
405 13 81 16 -455 3 -675z"/>
</g>
</svg>
